<svg width="32" height="30" viewBox="0 0 32 30" fill="none" xmlns="http://www.w3.org/2000/svg">
<path d="M14.2675 1.00391C15.0371 -0.330465 16.9629 -0.330463 17.7325 1.00391L21.3419 7.26212C21.6254 7.75367 22.1044 8.10166 22.6595 8.21939L29.7268 9.71825C31.2336 10.0378 31.8287 11.8694 30.7975 13.0137L25.961 18.3803C25.5811 18.8018 25.3981 19.3649 25.4577 19.9292L26.2161 27.1138C26.3778 28.6456 24.8198 29.7776 23.4129 29.1504L16.8143 26.209C16.296 25.978 15.704 25.978 15.1857 26.209L8.58714 29.1504C7.1802 29.7776 5.62219 28.6456 5.7839 27.1137L6.54231 19.9292C6.60188 19.3649 6.41893 18.8018 6.03904 18.3803L1.2025 13.0137C0.171252 11.8694 0.766361 10.0378 2.27325 9.71825L9.34053 8.21939C9.89563 8.10166 10.3746 7.75367 10.6581 7.26212L14.2675 1.00391Z" fill="#FFC42C"/>
</svg>
